<?xml version="1.0" encoding="UTF-8" standalone="no"?>
<svg
   xmlns:dc="http://purl.org/dc/elements/1.1/"
   xmlns:cc="http://creativecommons.org/ns#"
   xmlns:rdf="http://www.w3.org/1999/02/22-rdf-syntax-ns#"
   xmlns:svg="http://www.w3.org/2000/svg"
   xmlns="http://www.w3.org/2000/svg"
   xmlns:sodipodi="http://sodipodi.sourceforge.net/DTD/sodipodi-0.dtd"
   xmlns:inkscape="http://www.inkscape.org/namespaces/inkscape"
   height="24"
   version="1.1"
   width="24"
   id="svg853"
   sodipodi:docname="card-film.svg"
   inkscape:version="1.0.2 (e86c8708, 2021-01-15)">
  <metadata
     id="metadata859">
    <rdf:RDF>
      <cc:Work
         rdf:about="">
        <dc:format>image/svg+xml</dc:format>
        <dc:type
           rdf:resource="http://purl.org/dc/dcmitype/StillImage" />
        <dc:title></dc:title>
      </cc:Work>
    </rdf:RDF>
  </metadata>
  <defs
     id="defs857" />
  <sodipodi:namedview
     pagecolor="#ffffff"
     bordercolor="#666666"
     borderopacity="1"
     objecttolerance="10"
     gridtolerance="10"
     guidetolerance="10"
     inkscape:pageopacity="0"
     inkscape:pageshadow="2"
     inkscape:window-width="1920"
     inkscape:window-height="1080"
     id="namedview855"
     showgrid="false"
     inkscape:zoom="32.25"
     inkscape:cx="12"
     inkscape:cy="12"
     inkscape:window-x="0"
     inkscape:window-y="0"
     inkscape:window-maximized="0"
     inkscape:current-layer="g851" />
  <g
     transform="translate(0 -1028.4)"
     id="g851">
    <path
       d="m4 1030.4c-1.1046 0-2 0.9-2 2v3 11 3c0 1.1 0.8954 2 2 2h2 12 2c1.105 0 2-0.9 2-2v-3-11-3c0-1.1-0.895-2-2-2h-2-12-2z"
       fill="#2c3e50"
       id="path833"
       style="fill:#000000" />
    <rect
       fill="#16a085"
       height="6"
       width="12"
       x="6"
       y="1044.4"
       id="rect835"
       style="fill:#c0c3ee;fill-opacity:1" />
    <rect
       fill="#16a085"
       height="7"
       width="12"
       x="6"
       y="1029.4"
       id="rect837"
       style="fill:#c0c3ee;fill-opacity:1" />
    <rect
       fill="#1abc9c"
       height="10"
       width="12"
       x="6"
       y="1035.4"
       id="rect839"
       style="fill:#96ccee;fill-opacity:1" />
    <path
       d="m4 1029.4c-1.1046 0-2 0.9-2 2v3 11 3c0 1.1 0.8954 2 2 2h2v-3-15-3h-2z"
       fill="#34495e"
       id="path841"
       style="fill:#333333" />
    <path
       d="m20 1029.4c1.105 0 2 0.9 2 2v3 11 3c0 1.1-0.895 2-2 2h-2v-3-15-3h2z"
       fill="#34495e"
       id="path843"
       style="fill:#333333" />
    <path
       d="m3.5 1031.4c-0.2761 0-0.5 0.2-0.5 0.5v1c0 0.2 0.2239 0.5 0.5 0.5h1c0.2761 0 0.5-0.3 0.5-0.5v-1c0-0.3-0.2239-0.5-0.5-0.5h-1zm0 3c-0.2761 0-0.5 0.2-0.5 0.5v1c0 0.2 0.2239 0.5 0.5 0.5h1c0.2761 0 0.5-0.3 0.5-0.5v-1c0-0.3-0.2239-0.5-0.5-0.5h-1zm0 3c-0.2761 0-0.5 0.2-0.5 0.5v1c0 0.2 0.2239 0.5 0.5 0.5h1c0.2761 0 0.5-0.3 0.5-0.5v-1c0-0.3-0.2239-0.5-0.5-0.5h-1zm0 3c-0.2761 0-0.5 0.2-0.5 0.5v1c0 0.2 0.2239 0.5 0.5 0.5h1c0.2761 0 0.5-0.3 0.5-0.5v-1c0-0.3-0.2239-0.5-0.5-0.5h-1zm0 3c-0.2761 0-0.5 0.2-0.5 0.5v1c0 0.2 0.2239 0.5 0.5 0.5h1c0.2761 0 0.5-0.3 0.5-0.5v-1c0-0.3-0.2239-0.5-0.5-0.5h-1zm0 3c-0.2761 0-0.5 0.2-0.5 0.5v1c0 0.2 0.2239 0.5 0.5 0.5h1c0.2761 0 0.5-0.3 0.5-0.5v-1c0-0.3-0.2239-0.5-0.5-0.5h-1z"
       fill="#16a085"
       id="path845"
       style="fill:#c0c3ee;fill-opacity:1" />
    <path
       d="m19.5 1031.4c-0.276 0-0.5 0.2-0.5 0.5v1c0 0.2 0.224 0.5 0.5 0.5h1c0.276 0 0.5-0.3 0.5-0.5v-1c0-0.3-0.224-0.5-0.5-0.5h-1zm0 3c-0.276 0-0.5 0.2-0.5 0.5v1c0 0.2 0.224 0.5 0.5 0.5h1c0.276 0 0.5-0.3 0.5-0.5v-1c0-0.3-0.224-0.5-0.5-0.5h-1zm0 3c-0.276 0-0.5 0.2-0.5 0.5v1c0 0.2 0.224 0.5 0.5 0.5h1c0.276 0 0.5-0.3 0.5-0.5v-1c0-0.3-0.224-0.5-0.5-0.5h-1zm0 3c-0.276 0-0.5 0.2-0.5 0.5v1c0 0.2 0.224 0.5 0.5 0.5h1c0.276 0 0.5-0.3 0.5-0.5v-1c0-0.3-0.224-0.5-0.5-0.5h-1zm0 3c-0.276 0-0.5 0.2-0.5 0.5v1c0 0.2 0.224 0.5 0.5 0.5h1c0.276 0 0.5-0.3 0.5-0.5v-1c0-0.3-0.224-0.5-0.5-0.5h-1zm0 3c-0.276 0-0.5 0.2-0.5 0.5v1c0 0.2 0.224 0.5 0.5 0.5h1c0.276 0 0.5-0.3 0.5-0.5v-1c0-0.3-0.224-0.5-0.5-0.5h-1z"
       fill="#16a085"
       id="path847"
       style="fill:#c0c3ee;fill-opacity:1" />
    <path
       d="m5 22 0.3397-20.196 17.32 10.392z"
       fill="#ecf0f1"
       transform="matrix(.28312 0 0 .29709 8.5844 1036.8)"
       id="path849" />
  </g>
</svg>
