<?xml version="1.0" ?><svg viewBox="0 0 24 24" xmlns="http://www.w3.org/2000/svg"><defs><style>.cls-1{fill:#eae2f9;}.cls-2{fill:#96ccee;}.cls-3{fill:#9293a5;}.cls-4{fill:#c0c3ee;}</style></defs><g data-name="ID Card" id="ID_Card"><rect class="cls-1" height="17.03" width="14.03" x="4.85" y="4.97"/><path class="cls-2" d="M13.2,10a1.34,1.34,0,1,1-1.34-1.34A1.35,1.35,0,0,1,13.2,10"/><path class="cls-2" d="M11.8,12.68a2.65,2.65,0,0,0-2.57,2.51,4.74,4.74,0,0,0,5.27,0,2.66,2.66,0,0,0-2.64-2.51Z"/><rect class="cls-3" height="2.83" width="8.21" x="7.76" y="4.09"/><rect class="cls-4" height="2.09" width="5.39" x="9.17" y="2"/><rect class="cls-4" height="17.03" width="1.82" x="17.05" y="4.97"/><path d="M18.88,4.47H16.47V4.09a.5.5,0,0,0-.5-.5h-.91V2a.5.5,0,0,0-.5-.5H9.17a.5.5,0,0,0-.5.5V3.59H7.76a.5.5,0,0,0-.5.5v.38H4.85a.5.5,0,0,0-.5.5V22a.5.5,0,0,0,.5.5h14a.5.5,0,0,0,.5-.5V5A.51.51,0,0,0,18.88,4.47Zm-3.41.12V6.41H13.73V4.59ZM9.67,2.5h4.39V3.59H9.67Zm3.06,2.09V6.41H11V4.59Zm-4.47,0H10V6.41H8.26ZM18.38,21.5h-13v-16H7.26V6.91a.5.5,0,0,0,.5.5H16a.5.5,0,0,0,.5-.5V5.47h1.91Z"/><path d="M11.86,11.8A1.84,1.84,0,1,0,10,10,1.84,1.84,0,0,0,11.86,11.8Zm0-2.68A.84.84,0,1,1,11,10,.84.84,0,0,1,11.86,9.12Z"/><path d="M11.86,16.49a5.2,5.2,0,0,0,2.91-.89.49.49,0,0,0,.23-.44,3.14,3.14,0,0,0-3.14-3h-.07a3.14,3.14,0,0,0-3.06,3A.47.47,0,0,0,9,15.6,5.22,5.22,0,0,0,11.86,16.49Zm0-3.3h0A2.13,2.13,0,0,1,14,14.93a4.3,4.3,0,0,1-4.2,0A2.15,2.15,0,0,1,11.81,13.19Z"/><path d="M14.58,17.78H9.15a.5.5,0,0,0-.5.5.5.5,0,0,0,.5.5h5.43a.51.51,0,0,0,.5-.5A.5.5,0,0,0,14.58,17.78Z"/><path d="M13.27,19.56H10.46a.5.5,0,0,0-.5.5.5.5,0,0,0,.5.5h2.81a.51.51,0,0,0,.5-.5A.5.5,0,0,0,13.27,19.56Z"/></g></svg>