<?xml version="1.0" encoding="UTF-8" standalone="no"?>
<svg
   xmlns:dc="http://purl.org/dc/elements/1.1/"
   xmlns:cc="http://creativecommons.org/ns#"
   xmlns:rdf="http://www.w3.org/1999/02/22-rdf-syntax-ns#"
   xmlns:svg="http://www.w3.org/2000/svg"
   xmlns="http://www.w3.org/2000/svg"
   xmlns:sodipodi="http://sodipodi.sourceforge.net/DTD/sodipodi-0.dtd"
   xmlns:inkscape="http://www.inkscape.org/namespaces/inkscape"
   height="24"
   version="1.1"
   width="24"
   id="svg853"
   sodipodi:docname="partner.svg"
   inkscape:version="1.0.2 (e86c8708, 2021-01-15)">
  <metadata
     id="metadata859">
    <rdf:RDF>
      <cc:Work
         rdf:about="">
        <dc:format>image/svg+xml</dc:format>
        <dc:type
           rdf:resource="http://purl.org/dc/dcmitype/StillImage" />
        <dc:title></dc:title>
      </cc:Work>
    </rdf:RDF>
  </metadata>
  <defs
     id="defs857" />
  <sodipodi:namedview
     pagecolor="#ffffff"
     bordercolor="#666666"
     borderopacity="1"
     objecttolerance="10"
     gridtolerance="10"
     guidetolerance="10"
     inkscape:pageopacity="0"
     inkscape:pageshadow="2"
     inkscape:window-width="1920"
     inkscape:window-height="1080"
     id="namedview855"
     showgrid="false"
     inkscape:zoom="11.402097"
     inkscape:cx="31.153869"
     inkscape:cy="3.2971894"
     inkscape:window-x="0"
     inkscape:window-y="0"
     inkscape:window-maximized="0"
     inkscape:current-layer="g1344"
     inkscape:document-rotation="0" />
  <g
     id="g1344"
     transform="translate(22.852713,2.7906977)">
    <g
       id="g1381"
       transform="translate(-40.768124,3.8629037)">
      <path
         style="fill:#ffcebf;fill-opacity:1;stroke:none;stroke-width:1px;stroke-linecap:butt;stroke-linejoin:miter;stroke-opacity:1"
         d="m 20.9812,5.5843 5.705427,-5.6744 1.271318,0.155 1.178294,0.9303 1.426357,-1.0543 2.914728,-0.7752 5.178295,5.0853 -2.976744,3.0387 0.837209,1.4884 -0.434108,0.7132 -1.209303,0.4341 -0.434108,1.1163 -1.116279,0.4031 -0.434109,1.1473 -1.24031,0.4961 -0.465116,1.3023 -1.24031,0.1861 -0.83721,-0.6202 -1.054263,0.7132 L 26.934689,14.1735 26.531588,13.0262 25.384301,12.6541 24.888177,11.4758 23.833914,11.0417 23.275774,9.7704 22.09748,9.3673 21.81841,8.282 22.624611,7.4138 Z"
         id="path1266" />
      <path
         style="fill:#c0c3ee;fill-opacity:1;stroke-width:0.0452691"
         d="m 26.354591,10.998641 c 0.248045,-0.249 0.461177,-0.4527 0.473626,-0.4527 0.01245,0 -0.180312,0.2037 -0.428357,0.4527 -0.248046,0.249 -0.461178,0.4527 -0.473627,0.4527 -0.01245,0 0.180312,-0.2037 0.428358,-0.4527 z m 5.273486,-0.6225 -1.063462,-1.0750997 1.075141,1.0634997 c 0.591327,0.5849 1.07514,1.0687 1.07514,1.0751 0,0.032 -0.09863,-0.064 -1.086819,-1.0635 z M 27.998424,9.6096413 c 0.03268,-0.013 0.07172,-0.011 0.08677,0 0.01504,0.015 -0.0117,0.026 -0.05942,0.024 -0.05274,0 -0.06346,-0.013 -0.02735,-0.027 z m -7.653458,-5.4355 -0.848355,-0.8492 2.569175,-2.5689001 2.569174,-2.5689 0.848355,0.8493 0.848355,0.8492 -2.569175,2.5689 -2.569174,2.5689001 z m 1.926567,-1.2673001 c 0.881813,-0.8774 0.923339,-0.9445 0.776233,-1.2545 -0.112326,-0.2367 -0.393727,-0.3182 -0.645151,-0.1869 -0.206505,0.1079 -1.530679,1.4837 -1.565831,1.6270001 -0.06281,0.2559 0.104176,0.5264 0.359018,0.5815 0.213985,0.046 0.370325,-0.065 1.075731,-0.7671001 z m 2.004823,-1.9618 c 0.320057,-0.3007 0.02378,-0.873 -0.409824,-0.7917 -0.437559,0.082 -0.502928,0.713 -0.09228,0.8907 0.13758,0.06 0.385373,0.011 0.502104,-0.099 z m 12.320364,0.4544 c -1.213777,-1.2457 -2.206868,-2.2823 -2.206868,-2.3036 0,-0.048 1.52072,-1.4968 1.571027,-1.4968 0.02001,0 1.034404,0.9981 2.25422,2.2181 l 2.217847,2.2182 -0.814679,0.8145 -0.814679,0.8146001 z m 2.359547,0.8579 c 0.05602,-0.052 0.120463,-0.1438 0.143215,-0.2037 0.08614,-0.2265 0.0065,-0.3542 -0.587507,-0.942 -0.522541,-0.517 -0.591424,-0.5702 -0.738676,-0.5702 -0.199098,0 -0.421988,0.1728 -0.46283,0.3587 -0.04836,0.2202 0.07868,0.4123 0.623535,0.9428 0.505357,0.4921 0.529775,0.5093 0.721734,0.5093 0.139142,0 0.229202,-0.028 0.300529,-0.095 z m -2.172444,-2.1971 c 0.367533,-0.2574 0.202241,-0.8329 -0.238545,-0.8306 -0.37922,0 -0.592961,0.3605 -0.404861,0.6789 0.131255,0.2222 0.439108,0.2948 0.643406,0.1517 z m 0.499824,3.3898001 -0.109746,-0.1245 0.12449,0.1097 c 0.116354,0.1026 0.14525,0.1393 0.109746,0.1393 -0.0081,0 -0.06413,-0.056 -0.12449,-0.1245 z m -1.720225,-1.7655001 -0.109746,-0.1245 0.12449,0.1097 c 0.06847,0.06 0.12449,0.1164 0.12449,0.1245 0,0.035 -0.03666,0.01 -0.139234,-0.1097 z m -1.742281,-1.7881 -0.132959,-0.1472 0.147124,0.133 c 0.137141,0.1239 0.167933,0.1613 0.132959,0.1613 -0.0078,0 -0.074,-0.066 -0.147124,-0.1471 z"
         id="path1206" />
      <path
         style="fill:#333333;fill-opacity:1;stroke-width:0.0452691"
         d="m 27.796568,15.024541 c -0.308797,-0.041 -0.619938,-0.2013 -0.862739,-0.4437 -0.248537,-0.2482 -0.358575,-0.4622 -0.429295,-0.835 l -0.05558,-0.293 -0.207746,-0.02 c -0.29168,-0.028 -0.681111,-0.2184 -0.905176,-0.4425 -0.224743,-0.2247 -0.414433,-0.6137 -0.442683,-0.9077 l -0.0202,-0.2102 -0.296019,-0.055 c -0.73725,-0.1358 -1.172353,-0.6089 -1.299394,-1.4129 -0.02531,-0.1601 -0.03081,-0.164 -0.267723,-0.1885 -0.48766,-0.05 -0.973223,-0.4113997 -1.200567,-0.8928997 -0.09783,-0.2071 -0.117572,-0.3135 -0.117572,-0.6337 0,-0.3212 0.01973,-0.4269 0.119292,-0.6392 0.06561,-0.14 0.19293,-0.3359 0.282932,-0.4356 0.09,-0.1 0.16364,-0.1991 0.16364,-0.2211 0,-0.022 -0.864018,-0.9038 -1.920039,-1.9596 -1.26963,-1.2694 -1.927485,-1.9586 -1.942018,-2.0346 -0.01209,-0.063 -0.0027,-0.167 0.02081,-0.2305 0.05839,-0.1575 5.865594,-5.9713 6.040983,-6.0478 0.077,-0.034 0.189037,-0.049 0.24898,-0.035 0.06143,0.014 0.622829,0.5371 1.286519,1.1975 l 1.17753,1.1717 0.361619,0.064 c 0.630721,0.1115 1.129008,0.3225 1.552413,0.6572 l 0.235445,0.1861 0.293292,-0.2248 c 0.590957,-0.453 1.17828,-0.6498 2.161344,-0.7242 0.33042,-0.025 0.672062,-0.07 0.759205,-0.1 0.325136,-0.1116 0.643675,-0.3724 1.913427,-1.5664 0.865343,-0.8138 1.343789,-1.2326 1.425965,-1.2483 0.06802,-0.013 0.184788,0 0.259488,0.036 0.172592,0.075 5.300272,5.2119 5.357769,5.367 0.02354,0.063 0.03291,0.1672 0.02083,0.2304 -0.01464,0.077 -0.873385,0.9662 -2.575786,2.6684 -1.404599,1.4045 -2.553817,2.5715 -2.553817,2.5935 0,0.022 0.07364,0.1214 0.16364,0.221 0.09,0.1 0.217321,0.2956 0.282932,0.4356 0.09957,0.2123 0.119291,0.318 0.119291,0.6392 0,0.3202 -0.01974,0.4266 -0.117572,0.6337 -0.227344,0.4815 -0.712906,0.8425997 -1.200566,0.8928997 -0.237037,0.024 -0.242393,0.028 -0.267233,0.1885 -0.05019,0.3238 -0.125121,0.5296 -0.273827,0.752 -0.255613,0.3825 -0.552491,0.5737 -1.026057,0.6609 l -0.296019,0.055 -0.0202,0.2102 c -0.02825,0.294 -0.217941,0.683 -0.442684,0.9077 -0.224064,0.2241 -0.613495,0.4145 -0.905175,0.4425 l -0.207746,0.02 -0.0557,0.2937 c -0.09007,0.4748 -0.284634,0.7756 -0.664774,1.0277 -0.300872,0.1996 -0.507299,0.2614 -0.872895,0.2611 -0.401036,-2e-4 -0.754903,-0.1349 -1.048852,-0.3992 l -0.228535,-0.2054 -0.228535,0.2054 c -0.353139,0.3175 -0.80671,0.4536 -1.294612,0.3884 z m 0.62022,-0.9874 c 0.270221,-0.1749 1.789569,-1.715 1.850521,-1.8758 0.201767,-0.532 -0.268194,-1.0834 -0.800469,-0.9391 -0.134193,0.036 -0.367475,0.244 -1.113473,0.9911 -1.002886,1.0044 -1.048524,1.0703 -0.974832,1.4074 0.105595,0.4831 0.617955,0.6886 1.038253,0.4164 z m 2.518838,0.042 c 0.396252,-0.2416 0.458628,-0.7553 0.131448,-1.0825 l -0.162886,-0.1628 -0.475555,0.4739 c -0.261556,0.2607 -0.469122,0.4946 -0.461259,0.5198 0.0079,0.025 0.112112,0.1121 0.231664,0.193 0.257833,0.1745 0.513148,0.1948 0.736588,0.059 z m -4.218883,-1.5819 c 0.114073,-0.053 0.510401,-0.4172 1.071073,-0.9842 0.970623,-0.9817 1.014176,-1.0501 0.90343,-1.4198 -0.0609,-0.2031997 -0.30214,-0.4308997 -0.503434,-0.4750997 -0.34777,-0.076 -0.413211,-0.032 -1.416005,0.9654997 -0.999135,0.9938 -1.071932,1.0967 -1.009771,1.4281 0.05529,0.2947 0.371209,0.5668 0.660458,0.5687 0.06224,5e-4 0.194657,-0.037 0.294249,-0.083 z m 5.741424,0.024 c 0.191755,-0.08 0.381351,-0.3079 0.417744,-0.5019 0.06432,-0.3429 0.03178,-0.387 -1.207392,-1.6363 -1.110413,-1.1194997 -1.171808,-1.1901997 -1.171808,-1.3496997 0,-0.2281 0.06793,-0.3387 0.256506,-0.4175 0.12124,-0.051 0.192523,-0.055 0.302116,-0.019 0.09356,0.031 0.521178,0.4263 1.2297,1.137 0.597446,0.5992997 1.141274,1.1187997 1.208507,1.1544997 0.06723,0.036 0.209831,0.065 0.316884,0.065 0.479035,-4e-4 0.795241,-0.4765 0.621933,-0.9363 -0.02642,-0.07 -0.554799,-0.6366997 -1.174181,-1.2590997 -0.731795,-0.7354 -1.136855,-1.1757 -1.156725,-1.2571 -0.06465,-0.2651 0.15535,-0.5311 0.439225,-0.5311 0.129977,0 0.269321,0.1226 1.280444,1.1264 0.624028,0.6195 1.204178,1.1616 1.289222,1.2047 0.191611,0.097 0.506264,0.071 0.676706,-0.056 0.26211,-0.1954 0.370559,-0.6072 0.231273,-0.8782 -0.06688,-0.1302 -4.709269,-4.792 -4.771988,-4.792 -0.02453,0 -0.381739,0.335 -0.793807,0.7445 -0.937427,0.9316 -1.055546,0.9983 -1.766578,0.9983 -0.438654,0 -0.498027,-0.011 -0.769574,-0.1408 -0.710625,-0.3401 -1.137575,-1.1507 -0.999483,-1.8977 0.09569,-0.5177 0.21985,-0.7013 1.022802,-1.5131 l 0.746934,-0.7551 -0.102195,-0.094 c -0.264622,-0.2445 -0.792872,-0.477 -1.211287,-0.5331 l -0.203711,-0.027 -2.670434,2.6729 -2.670434,2.6729 0.519414,0.5209 c 0.285678,0.2865 0.539002,0.5209 0.562943,0.5209 0.02394,0 0.260083,-0.2134 0.524761,-0.4742 0.556585,-0.5485 0.840139,-0.7096 1.302311,-0.7401 0.804358,-0.053 1.487408,0.4816 1.634935,1.2797 0.02707,0.1464 0.05439,0.2712 0.06071,0.2773 0.0063,0.01 0.127772,0.033 0.269893,0.059 0.668875,0.1231 1.13511,0.5925 1.276187,1.2849 l 0.05763,0.2829 0.224943,0.028 c 0.669723,0.083 1.241203,0.6524 1.32254,1.3172997 l 0.02913,0.2381 0.213649,0.031 c 0.68326,0.098 1.212279,0.6014 1.347656,1.2833 0.04696,0.2366 0.08702,0.3059 0.310134,0.537 0.382517,0.3963 0.662658,0.5041 0.972764,0.3746 z m -7.312276,-1.6321 c 0.06723,-0.035 0.53176,-0.4783 1.032282,-0.9845997 0.7815,-0.7905 0.913735,-0.9442 0.936191,-1.0884 0.06044,-0.3882 -0.201686,-0.7517 -0.572128,-0.7934 -0.11269,-0.013 -0.26156,-0.01 -0.330821,0.01 -0.155182,0.039 -1.881351,1.7378 -1.982659,1.9513 -0.215916,0.4549997 0.102658,0.9700997 0.600251,0.9705997 0.107053,0 0.249651,-0.029 0.316884,-0.064 z M 23.618266,9.2394413 c 0.236405,-0.1519 1.666941,-1.5958 1.804229,-1.821 0.315665,-0.5177 -0.217537,-1.1804 -0.796182,-0.9894 -0.124919,0.041 -0.388796,0.27 -0.958163,0.8306 -0.899597,0.8859 -1.044625,1.0549 -1.094414,1.2757 -0.06741,0.2988 0.106574,0.6493 0.381834,0.7692 0.227108,0.099 0.440249,0.078 0.662696,-0.065 z m 13.340292,-3.6842 c 0.653745,-0.6534 1.188628,-1.2047 1.188628,-1.2251 0,-0.021 -1.011007,-1.074 -2.246682,-2.3412 l -2.246682,-2.304 -0.186531,0.1278 c -0.484451,0.3318 -0.713313,0.4002 -1.598108,0.4778 -0.783181,0.069 -1.139228,0.1677 -1.54338,0.4289 -0.29767,0.1924 -2.186527,2.0228 -2.389197,2.3152 -0.184623,0.2664 -0.207212,0.6609 -0.05424,0.9472 0.21869,0.4092 0.683519,0.5893 1.109139,0.4296 0.177655,-0.067 0.43201,-0.296 1.463273,-1.319 1.188667,-1.1792 1.256347,-1.2383 1.418141,-1.2383 0.233894,0 0.434552,0.1979 0.434552,0.4286 0,0.1317 -0.03991,0.2065 -0.203711,0.3816 -0.112041,0.1198 -0.203711,0.236 -0.203711,0.2582 0,0.056 3.76879,3.8207 3.824721,3.8207 0.02484,0 0.580039,-0.5346 1.233784,-1.188 z m -13.173137,-3.0785 c 1.400595,-1.4004 2.546535,-2.5664 2.546535,-2.5912 0,-0.025 -0.381824,-0.4272 -0.848499,-0.8943 l -0.848498,-0.8494 -2.591808,2.5915 -2.591807,2.5915 0.848204,0.8491 c 0.466513,0.467 0.86871,0.8491 0.893772,0.8491 0.02506,0 1.191507,-1.1458 2.592101,-2.5463 z m -2.682044,1.1357 c -0.159534,-0.088 -0.246933,-0.2358 -0.247973,-0.4201 -9.66e-4,-0.1711 0.03079,-0.21 0.779885,-0.9562 0.502764,-0.5007 0.8212,-0.7841 0.894064,-0.7957 0.310757,-0.05 0.543229,0.1338 0.543229,0.4281 0,0.176 -0.02855,0.212 -0.735622,0.9254 -0.869831,0.8778 -0.985812,0.9547 -1.233583,0.8185 z m 2.541242,-2.6924 c -0.265284,-0.2653 -0.06585,-0.7408 0.31071,-0.7408 0.122459,0 0.199765,0.034 0.297732,0.1323 0.09797,0.098 0.132325,0.1753 0.132325,0.2977 0,0.3766 -0.475483,0.576 -0.740767,0.3108 z m 16.008091,1.9411 0.80291,-0.8039 -2.252605,-2.2522 -2.252603,-2.2523 -0.804512,0.7539 c -0.442482,0.4147 -0.798456,0.7721 -0.791054,0.7943 0.0234,0.07 4.401289,4.5583 4.449213,4.5612 0.02516,0 0.40705,-0.3589 0.848651,-0.801 z m -1.211275,-0.5941 c -0.07469,-0.047 -0.354796,-0.3084 -0.62245,-0.5816 -0.45531,-0.4648 -0.486642,-0.5085 -0.486642,-0.6784 0,-0.2906 0.23224,-0.4736 0.543229,-0.4282 0.0719,0.011 0.315414,0.2185 0.667718,0.5705 0.521936,0.5214 0.554487,0.5644 0.55354,0.7313 -0.0011,0.1877 -0.09184,0.3368 -0.256315,0.4209 -0.140191,0.072 -0.243181,0.063 -0.39908,-0.034 z m -2.09013,-2.2002 c -0.171292,-0.073 -0.241228,-0.1889 -0.241228,-0.3991 0,-0.1955 0.139833,-0.3776 0.320425,-0.4173 0.414504,-0.091 0.702388,0.3925 0.415198,0.6974 -0.153129,0.1625 -0.306298,0.1994 -0.494395,0.119 z"
         id="path1196" />
    </g>
  </g>
</svg>
