<?xml version="1.0" encoding="UTF-8" standalone="no"?>
<svg
   xmlns:osb="http://www.openswatchbook.org/uri/2009/osb"
   xmlns:dc="http://purl.org/dc/elements/1.1/"
   xmlns:cc="http://creativecommons.org/ns#"
   xmlns:rdf="http://www.w3.org/1999/02/22-rdf-syntax-ns#"
   xmlns:svg="http://www.w3.org/2000/svg"
   xmlns="http://www.w3.org/2000/svg"
   xmlns:sodipodi="http://sodipodi.sourceforge.net/DTD/sodipodi-0.dtd"
   xmlns:inkscape="http://www.inkscape.org/namespaces/inkscape"
   width="256"
   height="256"
   id="svg2"
   version="1.1"
   sodipodi:docname="slide.svg"
   inkscape:version="1.0.2 (e86c8708, 2021-01-15)">
  <sodipodi:namedview
     pagecolor="#ffffff"
     bordercolor="#666666"
     borderopacity="1"
     objecttolerance="10"
     gridtolerance="10"
     guidetolerance="10"
     inkscape:pageopacity="0"
     inkscape:pageshadow="2"
     inkscape:window-width="1920"
     inkscape:window-height="1052"
     id="namedview866"
     showgrid="false"
     inkscape:zoom="1.5117188"
     inkscape:cx="290.07866"
     inkscape:cy="106.40182"
     inkscape:window-x="0"
     inkscape:window-y="28"
     inkscape:window-maximized="0"
     inkscape:current-layer="svg2"
     inkscape:document-rotation="0"
     inkscape:snap-page="true" />
  <defs
     id="defs4">
    <linearGradient
       id="linearGradient2279"
       osb:paint="solid">
      <stop
         style="stop-color:#000000;stop-opacity:1;"
         offset="0"
         id="stop2277" />
    </linearGradient>
    <clipPath
       id="clipPath5383"
       clipPathUnits="userSpaceOnUse">
      <path
         id="path5385"
         d="m 24.3333,46.0004 26.1669,0 0,-23.0004 -26.1669,0 0,23.0004 z" />
    </clipPath>
    <clipPath
       id="clipPath5359"
       clipPathUnits="userSpaceOnUse">
      <path
         id="path5361"
         d="m 18,43 28,0 0,-28 -28,0 0,28 z" />
    </clipPath>
    <clipPath
       id="clipPath5347"
       clipPathUnits="userSpaceOnUse">
      <path
         id="path5349"
         d="M 0,64 64,64 64,0 0,0 0,64 Z" />
    </clipPath>
    <clipPath
       id="clipPath5478"
       clipPathUnits="userSpaceOnUse">
      <path
         id="path5480"
         d="m 24.3333,46.0004 26.1669,0 0,-23.0004 -26.1669,0 0,23.0004 z" />
    </clipPath>
    <clipPath
       id="clipPath5454"
       clipPathUnits="userSpaceOnUse">
      <path
         id="path5456"
         d="m 18,43 28,0 0,-28 -28,0 0,28 z" />
    </clipPath>
    <clipPath
       id="clipPath5442"
       clipPathUnits="userSpaceOnUse">
      <path
         id="path5444"
         d="M 0,64 64,64 64,0 0,0 0,64 Z" />
    </clipPath>
    <clipPath
       id="clipPath5549"
       clipPathUnits="userSpaceOnUse">
      <path
         id="path5551"
         d="m 12.2873,54 39.4254,0 0,-48 -39.4254,0 0,48 z" />
    </clipPath>
    <clipPath
       id="clipPath5537"
       clipPathUnits="userSpaceOnUse">
      <path
         id="path5539"
         d="M 0,64 64,64 64,0 0,0 0,64 Z" />
    </clipPath>
    <clipPath
       id="clipPath3416"
       clipPathUnits="userSpaceOnUse">
      <path
         id="path3418"
         d="M 0,64 64,64 64,0 0,0 0,64 Z" />
    </clipPath>
    <clipPath
       id="clipPath3428"
       clipPathUnits="userSpaceOnUse">
      <path
         id="path3430"
         d="m 9,44.3637 46,0 L 55,16 9,16 9,44.3637 Z" />
    </clipPath>
  </defs>
  <metadata
     id="metadata7">
    <rdf:RDF>
      <cc:Work
         rdf:about="">
        <dc:format>image/svg+xml</dc:format>
        <dc:type
           rdf:resource="http://purl.org/dc/dcmitype/StillImage" />
        <dc:title></dc:title>
      </cc:Work>
    </rdf:RDF>
  </metadata>
  <g
     id="g2405"
     transform="matrix(11.776383,0,0,11.104747,-4357.6614,-1232.2259)">
    <path
       style="fill:#96ccee;fill-opacity:1;stroke:none;stroke-width:1px;stroke-linecap:butt;stroke-linejoin:miter;stroke-opacity:1"
       d="m 371.39277,114.0562 -0.57881,1.57106 0.24806,9.42636 1.57711,0.91047 1.88114,0.0517 0.0973,2.84147 5.95349,0.16537 8.91029,-7.27815 -0.47619,-4.29808 -1.73643,-0.57881 -0.6615,-0.0827 -0.24806,-2.48062 -1.24031,-1.40568 -12.81654,0.24806 z"
       id="path2267"
       sodipodi:nodetypes="ccccccccccccccc" />
    <g
       id="g2366"
       transform="translate(78.877342,-25.081269)">
      <path
         d="m 293.80685,151.59496 h -0.25 c -1.24264,0 -2.25,-1.0074 -2.25,-2.25 v -9 c 0,-1.51878 1.23122,-2.75 2.75,-2.75 h 12 c 1.2426,0 2.25,1.00736 2.25,2.25 v 0.25 h -1.5 v -0.25 c 0,-0.41421 -0.3358,-0.75 -0.75,-0.75 h -12 c -0.69036,0 -1.25,0.55964 -1.25,1.25 v 9 c 0,0.4142 0.33579,0.75 0.75,0.75 h 0.25 z"
         fill="#212121"
         id="path1664" />
      <path
         d="m 297.05685,141.09496 c -1.24264,0 -2.25,1.00736 -2.25,2.25 v 9.5 c 0,1.2426 1.00736,2.25 2.25,2.25 h 3.9822 c -0.2446,-0.4693 -0.4336,-0.9722 -0.5583,-1.5 h -3.4239 c -0.41421,0 -0.75,-0.3358 -0.75,-0.75 v -9.5 c 0,-0.41421 0.33579,-0.75 0.75,-0.75 h 12 c 0.4142,0 0.75,0.33579 0.75,0.75 v 2.9822 c 0.551,0.2872 1.0557,0.651 1.5,1.0774 v -4.0596 c 0,-1.24264 -1.0074,-2.25 -2.25,-2.25 z"
         fill="#212121"
         id="path1666" />
      <path
         d="m 312.30685,152.09496 c 0,3.0376 -2.4624,5.5 -5.5,5.5 -3.0376,0 -5.5,-2.4624 -5.5,-5.5 0,-3.0376 2.4624,-5.5 5.5,-5.5 3.0376,0 5.5,2.4624 5.5,5.5 z m -8.5,-0.5 c -0.2761,0 -0.5,0.2239 -0.5,0.5 0,0.2761 0.2239,0.5 0.5,0.5 h 4.7929 l -1.6465,1.6464 c -0.1952,0.1953 -0.1952,0.5119 0,0.7072 0.1953,0.1952 0.5119,0.1952 0.7072,0 l 2.5,-2.5 c 0.1952,-0.1953 0.1952,-0.5119 0,-0.7072 l -2.5,-2.5 c -0.1953,-0.1952 -0.5119,-0.1952 -0.7072,0 -0.1952,0.1953 -0.1952,0.5119 0,0.7072 l 1.6465,1.6464 z"
         fill="#212121"
         id="path1668"
         style="fill:#c0c3ee;fill-opacity:1;stroke:#000000;stroke-opacity:1" />
    </g>
  </g>
</svg>
